<?xml version="1.0" encoding="UTF-8" standalone="no"?>
<!-- Created with Inkscape (http://www.inkscape.org/) -->

<svg
   width="210.64915mm"
   height="42.294487mm"
   viewBox="0 0 210.64915 42.294487"
   version="1.1"
   id="svg1"
   sodipodi:docname="FERNLOGO.svg"
   inkscape:version="1.4.3 (0d15f75, 2025-12-25)"
   xmlns:inkscape="http://www.inkscape.org/namespaces/inkscape"
   xmlns:sodipodi="http://sodipodi.sourceforge.net/DTD/sodipodi-0.dtd"
   xmlns="http://www.w3.org/2000/svg"
   xmlns:svg="http://www.w3.org/2000/svg">
  <sodipodi:namedview
     id="namedview1"
     pagecolor="#ffffff"
     bordercolor="#000000"
     borderopacity="0.25"
     inkscape:showpageshadow="2"
     inkscape:pageopacity="0.0"
     inkscape:pagecheckerboard="0"
     inkscape:deskcolor="#d1d1d1"
     inkscape:document-units="mm"
     inkscape:zoom="1"
     inkscape:cx="218.5"
     inkscape:cy="184.5"
     inkscape:window-width="1718"
     inkscape:window-height="1361"
     inkscape:window-x="0"
     inkscape:window-y="0"
     inkscape:window-maximized="0"
     inkscape:current-layer="layer1" />
  <defs
     id="defs1">
    <rect
       x="481.43674"
       y="399.62396"
       width="353.20761"
       height="110.04459"
       id="rect31-6" />
    <rect
       x="481.43674"
       y="399.62396"
       width="343.70297"
       height="50.266483"
       id="rect31-4-9" />
  </defs>
  <g
     id="layer1"
     transform="matrix(1.8727008,0,0,1.9891927,-92.390226,-53.562427)">
    <path
       style="fill:#5f7f73;fill-opacity:1;stroke-width:0.0343686"
       d="m 49.581979,48.181166 c -0.237479,-0.09238 -0.284726,-0.208531 -0.213088,-0.523813 0.104179,-0.458405 0.415819,-1.234089 0.853143,-2.123463 0.144794,-0.29445 0.30399,-0.639301 0.353758,-0.766345 l 0.09051,-0.23099 v -0.985313 c 0,-1.300335 -0.0224,-1.406628 -0.621519,-2.952508 -0.364841,-0.941371 -0.553137,-1.531818 -0.646984,-2.028795 -0.08188,-0.433528 -0.08372,-1.872024 -0.0032,-2.353788 0.131162,-0.782998 0.366412,-1.491429 0.760727,-2.290964 0.250538,-0.508006 0.651548,-1.235626 0.658109,-1.194126 0.0021,0.01 0.0078,0.207098 0.01359,0.437918 0.02048,0.802237 0.280453,2.262563 0.402836,2.262563 0.01815,0 0.06927,-0.135477 0.113654,-0.301072 0.106974,-0.399268 0.504028,-2.151255 0.504028,-2.224025 0,-0.03144 -0.07989,-0.125147 -0.17754,-0.208273 -0.245213,-0.208724 -0.289893,-0.316348 -0.289343,-0.696981 5.15e-4,-0.4522 0.07546,-0.564165 0.585682,-0.876639 l 0.199706,-0.122305 0.341886,0.253143 0.341886,0.253148 4.69e-4,0.511798 5.14e-4,0.511799 -0.36414,0.244907 -0.364141,0.244893 -0.273078,1.260151 -0.273077,1.26015 0.117941,0.136241 c 0.216568,0.250171 0.274003,0.606038 0.145842,0.903473 -0.07114,0.165009 -0.0713,0.169127 -0.01348,0.338529 0.455224,1.336744 0.53652,1.798624 0.537605,3.054455 5.15e-4,0.839358 -0.03314,1.159865 -0.197685,1.869116 -0.172784,0.744874 -0.171964,0.740126 -0.126485,0.740126 0.04679,0 0.345656,-0.347316 0.661927,-0.769101 0.202242,-0.269729 0.246648,-0.355432 0.321435,-0.620391 0.117264,-0.415349 0.182047,-0.86947 0.205634,-1.441274 0.02427,-0.588711 -0.01126,-0.931531 -0.215493,-2.077538 -0.201434,-1.130375 -0.237115,-1.451016 -0.23555,-2.116599 0.0032,-1.288134 0.365152,-2.510601 1.026996,-3.466948 0.32166,-0.464784 1.005488,-1.277618 1.458232,-1.733313 0.816735,-0.822082 0.759601,-0.748306 0.760209,-0.981487 0.0015,-0.36107 0.221925,-0.660704 0.487296,-0.660704 0.09186,0 0.160989,0.03398 0.278435,0.136848 0.147117,0.128871 0.168495,0.136429 0.366615,0.129659 0.268513,-0.0092 1.499272,-0.21416 1.580599,-0.263223 0.04186,-0.02522 0.06823,-0.09411 0.08244,-0.214993 0.02453,-0.208031 0.05428,-0.243663 0.449067,-0.53742 l 0.283322,-0.210798 0.372127,0.279431 0.372128,0.279425 v 0.443996 0.444004 l -0.139296,0.148828 c -0.07662,0.08188 -0.238297,0.205185 -0.359296,0.274037 -0.208113,0.118426 -0.227723,0.122865 -0.36287,0.08214 -0.196071,-0.0592 -0.252301,-0.05438 -0.317359,0.02672 -0.127284,0.158547 -0.425133,1.052976 -0.51758,1.5542 -0.07143,0.38717 -0.126215,1.168955 -0.104551,1.491454 0.01955,0.290306 0.03049,0.321076 0.231115,0.645318 0.08601,0.139027 0.0971,0.186962 0.0971,0.419754 0,0.243349 -0.0089,0.27731 -0.119697,0.458821 -0.159127,0.260626 -0.195577,0.366969 -0.31739,0.925897 -0.182254,0.836251 -0.468775,1.580907 -0.910371,2.365984 -0.219424,0.390103 -0.249702,0.462229 -0.194047,0.462229 0.102084,0 0.837646,-0.44048 1.250191,-0.748667 0.29971,-0.22389 0.42617,-0.423919 0.553231,-0.87505 0.144197,-0.511924 0.205713,-1.071239 0.272938,-2.481753 0.04345,-0.912518 0.105465,-1.401765 0.232427,-1.834836 0.270304,-0.922043 1.02961,-1.960485 1.736808,-2.375295 0.248173,-0.145579 0.748882,-0.378015 0.748882,-0.347647 0,0.0087 -0.07467,0.183521 -0.165975,0.388611 -0.331538,0.744891 -0.352943,0.885164 -0.449591,2.94665 -0.07554,1.611333 -0.26518,2.291863 -0.93808,3.366378 -0.160228,0.255862 -0.291319,0.481652 -0.291319,0.50178 0,0.06883 0.108489,0.03641 0.563852,-0.168603 0.824292,-0.371127 0.903135,-0.43386 1.095187,-0.871343 0.220753,-0.502846 0.249178,-0.682096 0.332762,-2.098351 0.06956,-1.179227 0.158237,-1.639984 0.435288,-2.263044 0.216659,-0.487216 0.613827,-0.992229 1.029158,-1.308607 0.247099,-0.188223 0.809184,-0.499294 0.839813,-0.464775 0.01224,0.01375 0.0032,0.07776 -0.02002,0.142181 -0.214306,0.595576 -0.279389,0.962861 -0.32674,1.843876 -0.07887,1.467183 -0.102478,1.791289 -0.145816,2.000689 -0.09423,0.455417 -0.406425,1.22189 -0.715642,1.756975 -0.09608,0.166283 -0.174708,0.318194 -0.174708,0.337574 0,0.05831 0.07498,0.0414 0.425749,-0.09562 0.417385,-0.163071 0.689622,-0.30849 0.837688,-0.447455 0.253292,-0.237727 0.397552,-0.726451 0.452221,-1.532072 0.101129,-1.489774 0.127845,-1.686053 0.293174,-2.153952 0.1622,-0.459005 0.343453,-0.76202 0.692828,-1.158293 0.290284,-0.32924 0.361646,-0.388986 0.672429,-0.562911 0.191216,-0.107032 0.356097,-0.185088 0.366401,-0.173477 0.01037,0.01164 -0.01095,0.129423 -0.04725,0.261779 -0.06747,0.246192 -0.09749,0.622948 -0.164677,2.065471 -0.05262,1.13039 -0.106301,1.38295 -0.434947,2.047918 -0.115242,0.23319 -0.219086,0.466809 -0.230736,0.519166 l -0.0212,0.09519 0.173251,-0.05649 c 0.287817,-0.0938 0.765536,-0.372381 0.901588,-0.52578 0.269469,-0.303815 0.33947,-0.587125 0.405551,-1.641387 0.06657,-1.062331 0.107174,-1.274213 0.342647,-1.788893 0.234538,-0.512638 0.760185,-1.118412 1.171608,-1.350208 0.107088,-0.06033 0.199324,-0.104458 0.205001,-0.09806 0.0052,0.0061 -0.0046,0.06804 -0.02189,0.136936 -0.01769,0.06891 -0.04595,0.626169 -0.06275,1.238345 -0.03469,1.261389 -0.05794,1.421459 -0.307187,2.120739 -0.08046,0.225653 -0.138129,0.419464 -0.128184,0.430687 0.029,0.03277 0.419169,-0.216339 0.654846,-0.417875 0.403071,-0.34465 0.470003,-0.535667 0.58777,-1.677395 0.0352,-0.341201 0.08636,-0.718917 0.113691,-0.839337 0.120593,-0.531326 0.438094,-1.059123 0.853463,-1.418758 0.190212,-0.164695 0.549657,-0.406491 0.569266,-0.382945 0.01431,0.01725 -0.03822,1.877228 -0.06094,2.157509 -0.01058,0.129382 -0.0046,0.209836 0.01555,0.209836 0.09862,0 0.90929,-0.980987 1.336429,-1.617199 l 0.215988,-0.321702 2.2e-4,-0.554127 2.25e-4,-0.554145 0.358883,-0.247322 0.358869,-0.247332 0.270204,0.166052 c 0.315678,0.194003 0.451009,0.333732 0.479654,0.495188 0.01131,0.06401 0.02022,0.282515 0.01986,0.485739 l -3.62e-4,0.369475 -0.29499,0.196166 c -0.233351,0.155176 -0.33615,0.20163 -0.492011,0.222349 -0.221968,0.02951 -0.145715,-0.05088 -0.727602,0.767518 -0.178385,0.250895 -0.471038,0.63538 -0.650366,0.854419 -0.17932,0.219048 -0.320565,0.40444 -0.313864,0.411989 0.0067,0.0079 0.112343,-0.0045 0.234778,-0.02724 0.134108,-0.0247 0.370565,-0.03189 0.594831,-0.01802 0.44798,0.02758 1.129605,0.08626 1.31796,0.11345 l 0.136536,0.01972 -0.12035,0.2213 c -0.24044,0.442113 -0.632467,0.820091 -1.15612,1.114673 l -0.25894,0.145677 -1.149069,0.02314 c -0.631988,0.01268 -1.20273,0.04021 -1.268321,0.06095 -0.164735,0.05242 -0.835602,0.561962 -0.835602,0.634688 0,0.01183 0.15658,0.02179 0.347959,0.02223 0.478646,7.96e-4 0.711488,0.04477 1.364052,0.256193 0.625906,0.202838 1.013786,0.289429 1.310546,0.292586 0.108929,0.0015 0.255434,0.01359 0.325557,0.02768 l 0.127499,0.02558 -0.176047,0.175729 c -0.28436,0.283829 -0.876643,0.711505 -1.175766,0.848998 -0.31348,0.144095 -0.680652,0.23377 -0.957157,0.23377 -0.344222,0 -0.7561,-0.109866 -1.538875,-0.410444 l -0.776826,-0.298305 -0.388413,-0.0015 -0.388425,-0.0015 -0.513801,0.271642 c -0.543984,0.287578 -0.568422,0.32234 -0.230659,0.328146 0.562285,0.0097 1.218895,0.223363 2.130921,0.69355 0.928921,0.478889 1.008356,0.506686 1.780629,0.62294 0.246497,0.03705 0.455699,0.07592 0.464873,0.08626 0.02493,0.02823 -0.552679,0.44746 -0.848316,0.615639 -0.679797,0.386748 -1.357335,0.505916 -2.129921,0.37462 -0.54273,-0.09223 -0.966556,-0.280011 -1.689498,-0.748551 -0.846015,-0.548296 -1.264164,-0.728992 -1.75117,-0.756742 -0.282958,-0.01611 -0.372325,-0.0054 -0.663555,0.07881 -0.480078,0.13895 -1.155872,0.38197 -1.178868,0.42393 -0.03034,0.05534 0.02712,0.06699 0.615747,0.124468 1.075337,0.105044 1.576071,0.291932 2.71473,1.013231 1.153133,0.73046 1.945303,1.075338 2.506714,1.091328 0.08339,0.0026 0.195331,0.01548 0.248733,0.02923 0.09661,0.02481 0.09585,0.0258 -0.146332,0.206139 -0.404478,0.301113 -1.158874,0.602261 -1.696428,0.677212 -0.328694,0.04578 -1.15364,0.02248 -1.458773,-0.04123 -0.619334,-0.129325 -1.200452,-0.424874 -2.152473,-1.094718 -1.508338,-1.061273 -2.229836,-1.292974 -3.17711,-1.020294 -1.004135,0.289046 -3.128355,1.46104 -4.429363,2.443796 -0.637913,0.481861 -1.393921,1.139294 -1.357958,1.1809 0.0098,0.01121 0.199084,-0.04642 0.420781,-0.127958 0.906261,-0.33366 1.738903,-0.449215 2.641893,-0.36663 0.5976,0.05464 0.910929,0.132419 1.485387,0.368627 0.481534,0.198006 0.596495,0.217298 0.779963,0.130868 0.151889,-0.07154 0.257194,-0.06804 0.417136,0.01393 0.166783,0.08537 0.286028,0.245693 0.353695,0.475392 0.03387,0.115036 0.09837,0.227098 0.176388,0.306565 0.24306,0.247565 1.107125,0.714893 1.870647,1.011723 l 0.366968,0.142654 0.351029,-0.217872 c 0.193057,-0.119816 0.369239,-0.217856 0.391489,-0.217856 0.136671,0 0.605468,0.431463 0.711503,0.654839 0.03578,0.0753 0.05397,0.07968 0.238303,0.05761 1.121535,-0.13404 1.165131,-0.146727 1.381064,-0.402202 0.148792,-0.176044 0.254509,-0.23507 0.408624,-0.228144 0.160148,0.007 0.255667,-0.07084 0.58831,-0.480537 0.393734,-0.484958 0.497044,-0.651501 0.485598,-0.78285 -0.0089,-0.10144 -0.02385,-0.115475 -0.155151,-0.144556 -0.08712,-0.01927 -0.378935,-0.01695 -0.728277,0.0054 -0.568625,0.03711 -0.595628,0.04262 -1.100815,0.223442 -0.804908,0.288073 -1.117527,0.347565 -1.828786,0.347979 -0.456836,1.81e-4 -0.664038,-0.0154 -0.873945,-0.06594 -0.648588,-0.156171 -1.245347,-0.457677 -2.238735,-1.131091 -1.145064,-0.776236 -1.799849,-1.069962 -2.704477,-1.213123 -0.189858,-0.03004 -0.352258,-0.06252 -0.360894,-0.07233 -0.02692,-0.0303 0.09506,-0.115468 0.513648,-0.358348 0.664707,-0.385693 1.118136,-0.53559 1.847023,-0.610583 0.62152,-0.06401 1.386822,0.03597 1.968184,0.256949 0.312561,0.118807 0.758985,0.383921 1.50815,0.895671 1.428276,0.97561 2.034564,1.226068 3.229312,1.334034 0.730313,0.06594 0.963526,0.0054 0.963526,-0.250587 0,-0.06453 0.03299,-0.137981 0.08901,-0.197884 0.118252,-0.126513 0.557896,-0.429327 0.623321,-0.429327 0.02848,0 0.200289,0.099 0.381824,0.219992 l 0.330022,0.220002 v 0.452323 c 0,0.43061 -0.0036,0.457597 -0.08185,0.561991 -0.100562,0.134745 -0.469246,0.40155 -0.59363,0.429599 -0.0641,0.01444 -0.143737,-0.01043 -0.26633,-0.08301 -0.09619,-0.05691 -0.18341,-0.108251 -0.193827,-0.113956 -0.02711,-0.01478 -0.703133,0.869777 -0.841935,1.101669 -0.07226,0.120676 -0.124204,0.258641 -0.136959,0.363475 -0.03839,0.315716 -0.203653,0.576382 -0.407171,0.642189 -0.125056,0.04043 -0.215088,0.007 -0.363537,-0.134327 -0.05981,-0.05701 -0.130652,-0.122098 -0.157352,-0.144609 -0.07159,-0.06033 -1.421128,0.100352 -1.457448,0.173535 -0.11744,0.236585 -0.273363,0.442747 -0.445733,0.589345 -0.302438,0.257219 -0.312048,0.2571 -0.696332,-0.0087 l -0.329791,-0.227911 -0.226572,0.0591 c -0.423976,0.110547 -0.679053,0.136579 -1.537486,0.15691 -0.711778,0.01681 -0.910084,0.01 -1.165242,-0.04 -0.584698,-0.114775 -1.418215,-0.474321 -2.459961,-1.061133 -1.428218,-0.804504 -2.116725,-1.03935 -3.048576,-1.039847 -0.831941,-3.68e-4 -1.331379,0.218293 -1.911719,0.837238 -0.322462,0.343918 -0.829212,1.031425 -0.775213,1.051716 0.01913,0.007 0.21633,-0.06935 0.438078,-0.170177 0.920208,-0.418335 1.991459,-0.620528 2.740351,-0.517209 0.828252,0.114247 1.160233,0.240404 2.977855,1.131562 1.409418,0.691037 2.273178,0.924213 3.414818,0.921836 l 0.582626,-0.0015 -0.08755,0.07907 c -0.146914,0.132674 -0.762672,0.539059 -1.207165,0.79672 -1.215495,0.704542 -2.215297,0.978985 -3.17206,0.870664 -0.837444,-0.0948 -1.3193,-0.262025 -2.395238,-0.831192 -1.642099,-0.868687 -1.899977,-0.976613 -2.678447,-1.121087 -0.06672,-0.01238 -0.121381,-0.03694 -0.121381,-0.05472 0,-0.03616 0.401829,-0.217113 0.693583,-0.3123 0.397666,-0.129721 0.64904,-0.03984 2.085073,0.745287 0.510117,0.278898 1.026711,0.550823 1.14801,0.604276 0.542619,0.239128 1.114216,0.331607 1.867043,0.302079 0.540814,-0.0212 0.907548,-0.106079 1.537645,-0.355808 0.42975,-0.170324 0.438831,-0.209099 0.06814,-0.290819 -0.450431,-0.09926 -1.073832,-0.35555 -2.414833,-0.9927 -1.60736,-0.763724 -1.91957,-0.853177 -2.864569,-0.820796 -0.32044,0.01102 -0.713713,0.0467 -0.87393,0.07942 -0.602802,0.123031 -1.435334,0.507151 -1.972353,0.910005 -0.497522,0.373224 -0.967973,0.997437 -1.279466,1.697598 -0.06739,0.151599 -0.206314,0.497342 -0.308591,0.768305 -0.241487,0.639759 -0.331958,0.839228 -0.380933,0.839825 -0.02193,1.87e-4 -0.06905,0.0079 -0.104656,0.01622 -0.03559,0.0087 -0.08658,0.007 -0.113281,-0.0037 z m 12.765317,-4.721342 c 0.162017,-0.05464 0.124451,-0.09929 -0.208534,-0.247841 -0.134618,-0.05998 -0.542448,-0.273164 -0.906304,-0.473579 -0.363855,-0.2004 -0.703718,-0.375479 -0.755249,-0.389044 -0.0515,-0.01348 -0.161857,-0.0044 -0.245176,0.01905 -0.31293,0.09042 -0.548837,-0.06445 -0.766432,-0.50314 -0.06379,-0.128588 -0.147449,-0.257056 -0.185911,-0.285473 -0.118311,-0.08739 -0.749307,-0.305416 -1.180206,-0.407762 -0.353705,-0.08398 -0.488504,-0.09746 -0.991957,-0.09887 -0.588731,-0.0015 -0.927743,0.0438 -1.383729,0.185484 -0.292957,0.09103 -0.283099,0.09835 0.428876,0.318062 0.482017,0.14875 0.818571,0.308526 1.891534,0.897974 1.793256,0.985169 2.055086,1.065758 3.384445,1.04177 0.469632,-0.0088 0.844249,-0.03159 0.918643,-0.05665 z M 51.410171,42.411549 c 0.121263,-0.3415 0.293362,-1.118161 0.35829,-1.616829 0.0816,-0.626783 0.0539,-1.547778 -0.06432,-2.133541 -0.09786,-0.485221 -0.370417,-1.428367 -0.454711,-1.573395 -0.02978,-0.05125 -0.102212,-0.115787 -0.160975,-0.143476 -0.139773,-0.06585 -0.300243,-0.219861 -0.354478,-0.34021 -0.02375,-0.0528 -0.05367,-0.265957 -0.06634,-0.473674 -0.02193,-0.359734 -0.122087,-0.912993 -0.222054,-1.228032 l -0.04632,-0.145968 -0.08599,0.217031 c -0.289612,0.730924 -0.463875,1.789129 -0.428446,2.601621 0.03605,0.827949 0.166804,1.351906 0.665867,2.669436 0.339546,0.896388 0.559264,1.593975 0.634388,2.014139 0.03024,0.169001 0.06012,0.327803 0.06649,0.3529 0.02495,0.09844 0.07516,0.03512 0.158641,-0.200002 z m 13.1397,-1.393937 c 0.09346,-0.04166 0.09393,-0.04327 0.03231,-0.111159 -0.03433,-0.03791 -0.229934,-0.174224 -0.434665,-0.302989 -0.204717,-0.128767 -0.554294,-0.3645 -0.77683,-0.523855 -0.827092,-0.59229 -1.27199,-0.844639 -1.783989,-1.011922 -0.447356,-0.14616 -0.744821,-0.179628 -1.42922,-0.160811 -0.578426,0.01596 -0.736227,0.03641 -0.735334,0.09577 1.65e-4,0.01297 0.222318,0.150667 0.493608,0.306138 0.271293,0.155466 0.770011,0.465706 1.108256,0.689427 0.973109,0.643623 1.513783,0.909227 2.103925,1.033522 0.304025,0.064 1.26812,0.05446 1.421886,-0.01408 z M 54.846456,39.78791 c 0.832402,-0.672004 1.070099,-0.988315 1.211671,-1.612392 0.156042,-0.687897 0.193079,-1.543996 0.112399,-2.598004 -0.08011,-1.046481 -0.09161,-1.45733 -0.05134,-1.834944 0.07611,-0.713717 0.280841,-1.458089 0.5414,-1.968601 l 0.116843,-0.228934 -0.137552,-0.763419 c -0.07566,-0.419888 -0.152895,-0.80139 -0.171643,-0.847772 -0.0814,-0.201431 -0.231628,-0.136325 -0.572633,0.248128 -0.554714,0.625415 -0.74731,1.198751 -0.797789,2.375009 -0.02334,0.544177 0.01468,1.154436 0.131459,2.108207 0.164916,1.346961 0.176322,1.820528 0.06327,2.625928 -0.101317,0.721781 -0.276408,1.360955 -0.580299,2.118321 -0.170886,0.425906 -0.211178,0.583735 -0.148999,0.583735 0.01598,0 0.143383,-0.09236 0.283213,-0.205262 z m -0.335669,-1.53646 c 0.241256,-0.811491 0.266591,-0.998074 0.264014,-1.944071 -0.0021,-0.678949 -0.01737,-0.947383 -0.08996,-1.550512 -0.04829,-0.401189 -0.102671,-1.066275 -0.120963,-1.477976 -0.0183,-0.411704 -0.04377,-0.847072 -0.05644,-0.967499 l -0.02324,-0.21896 -0.237588,0.40142 c -0.278762,0.470992 -0.610966,1.224237 -0.729542,1.654193 -0.25423,0.921855 -0.243396,1.682162 0.04761,3.339295 0.1727,0.983436 0.250849,1.515387 0.274328,1.867203 0.03552,0.53235 0.03086,0.533378 0.28941,-0.06305 0.12816,-0.295591 0.300244,-0.763617 0.382417,-1.040045 z m 12.442056,0.606699 c 0.112721,-0.02219 0.204454,-0.05077 0.203831,-0.06392 -0.0014,-0.02208 -1.499884,-0.964788 -1.804087,-1.134699 -0.684902,-0.382551 -1.479092,-0.582764 -2.321551,-0.58526 l -0.194048,-3.68e-4 0.50576,0.380607 c 1.464948,1.102425 2.163055,1.424905 3.116483,1.439597 0.158758,0.0026 0.380893,-0.01364 0.493612,-0.03571 z m -9.959431,-1.609428 c 0.390227,-0.66784 0.690104,-1.431094 0.875849,-2.229303 l 0.09304,-0.399854 -0.124348,-0.168776 c -0.190154,-0.258063 -0.228726,-0.369711 -0.228726,-0.662016 0,-0.142823 -0.01468,-0.290509 -0.03251,-0.328204 -0.05203,-0.109548 -0.686831,-0.736139 -0.71322,-0.703957 -0.01317,0.016 -0.05653,0.185197 -0.09647,0.375871 -0.09747,0.465927 -0.118727,1.253674 -0.06065,2.244023 0.02474,0.421657 0.04325,1.090977 0.04123,1.487404 -0.0021,0.396389 0.0082,0.72072 0.02277,0.72072 0.01468,0 0.114977,-0.151158 0.222931,-0.335908 z m 12.321481,-0.528728 c 0.08334,-0.03609 0.04346,-0.117903 -0.105319,-0.216204 -0.228847,-0.15121 -1.135781,-0.614988 -1.372056,-0.70162 -0.351293,-0.128822 -0.676401,-0.192871 -1.088339,-0.214385 -0.384668,-0.02009 -0.562426,-0.0026 -0.562426,0.05745 0,0.04122 0.855181,0.587583 1.229984,0.785951 0.36047,0.190778 0.624179,0.273467 1.003404,0.314605 0.265552,0.02883 0.804519,0.01334 0.894752,-0.02577 z m -9.131208,-1.178969 c 0.582414,-1.013504 0.759457,-1.898989 0.759457,-3.798418 0,-0.771567 -0.01343,-0.856699 -0.119079,-0.757804 -0.09215,0.08626 -0.503513,0.80568 -0.611489,1.069477 -0.203602,0.497372 -0.249786,0.82826 -0.321171,2.300713 -0.04496,0.926322 -0.07309,1.284257 -0.130842,1.66044 l -0.01966,0.127723 0.153226,-0.182458 c 0.08427,-0.100363 0.214556,-0.289208 0.289525,-0.419673 z m 2.733117,-0.86671 c 0.305685,-0.468489 0.538879,-1.097634 0.615928,-1.661653 0.03568,-0.260857 0.09539,-1.485543 0.09637,-1.975067 l 5.15e-4,-0.288474 -0.06724,0.06865 c -0.100009,0.102054 -0.369893,0.569331 -0.478537,0.828558 -0.203083,0.484564 -0.228304,0.647284 -0.312386,2.015279 -0.02712,0.441567 -0.05832,0.905486 -0.06934,1.030939 -0.01411,0.159933 -0.0089,0.22808 0.017,0.22808 0.02034,0 0.109318,-0.110848 0.197725,-0.24633 z m 8.060411,-0.302728 c 0.278445,-0.0498 0.323683,-0.06716 0.323683,-0.124564 0,-0.06007 -0.139353,-0.123517 -0.614991,-0.280011 -0.3489,-0.11479 -0.402662,-0.122486 -0.85775,-0.122692 -0.867096,-3.69e-4 -0.888,0.09967 -0.08524,0.408025 0.369151,0.141807 0.438814,0.157062 0.716408,0.156955 0.169118,-6.9e-5 0.402167,-0.01706 0.517884,-0.03775 z m -5.358276,-0.705889 c 0.177304,-0.280114 0.354609,-0.696057 0.421118,-0.987853 0.09201,-0.40367 0.148916,-1.494337 0.0941,-1.803375 -0.03822,-0.215693 -0.141635,-0.112153 -0.344116,0.34467 -0.235578,0.531531 -0.295171,0.842059 -0.347408,1.81054 -0.04087,0.757257 -0.04102,0.915742 -5.15e-4,0.887746 0.01753,-0.01227 0.09725,-0.125494 0.177145,-0.251728 z m -7.736902,-0.521266 c 0.01146,-0.03363 0.03506,-0.284 0.05261,-0.556515 0.03319,-0.51695 0.08565,-1.198416 0.117414,-1.526411 0.02193,-0.226983 -0.0086,-0.241656 -0.151981,-0.07294 -0.184791,0.217296 -0.678316,0.976169 -0.774352,1.190653 l -0.09475,0.21162 0.281045,0.309891 c 0.300498,0.331367 0.480118,0.504783 0.522816,0.504783 0.01453,0 0.03573,-0.02746 0.04725,-0.06095 z m 10.255371,-0.696195 c 0.08719,-0.109242 0.277686,-0.564705 0.328119,-0.784459 0.02646,-0.115342 0.05817,-0.476624 0.07039,-0.802853 l 0.02236,-0.593149 -0.08665,0.08995 c -0.196418,0.203913 -0.373138,0.784331 -0.437766,1.437772 -0.06537,0.660552 -0.03839,0.830545 0.103542,0.652738 z m 4.442016,-0.667997 c 0.124624,-0.04353 0.26941,-0.103931 0.321762,-0.13431 0.09055,-0.05253 0.09222,-0.05761 0.03422,-0.10542 -0.17529,-0.144514 -1.278514,0.04911 -1.278514,0.224404 0,0.143335 0.53045,0.152155 0.922487,0.0154 z M 57.445125,30.62003 c 0.22378,-0.257867 0.621716,-0.685881 0.884297,-0.951146 0.262581,-0.265264 0.477431,-0.508146 0.477431,-0.539758 0,-0.07128 -0.152805,-0.05675 -1.084325,0.102629 -0.713967,0.122197 -0.736434,0.133064 -0.857469,0.414975 -0.03584,0.08328 -0.065,0.218338 -0.065,0.300109 0,0.231804 0.173319,1.14203 0.217455,1.14203 0.01146,0 0.20385,-0.210975 0.427626,-0.468839 z m 13.132743,0.222523 c 0.173854,-0.248084 0.264217,-0.587158 0.291728,-1.094807 0.02339,-0.431368 -0.0075,-0.475782 -0.1342,-0.193687 -0.178189,0.396455 -0.350407,1.352345 -0.243646,1.352345 0.02272,0 0.06155,-0.02872 0.08612,-0.06383 z"
       id="path31-7" />
    <text
       xml:space="preserve"
       transform="matrix(0.26458333,0,0,0.26458333,-49.146503,-79.299528)"
       id="text31-7"
       style="font-size:48px;writing-mode:lr-tb;direction:ltr;white-space:pre;shape-inside:url(#rect31-6);display:inline;fill:#24302b;fill-opacity:1"><tspan
         x="481.4375"
         y="443.73954"
         id="tspan8"><tspan
           style="font-weight:bold;font-family:Montserrat;-inkscape-font-specification:'Montserrat Bold'"
           id="tspan6">Fern </tspan><tspan
           style="font-family:Montserrat;-inkscape-font-specification:Montserrat"
           id="tspan7">Digital</tspan></tspan></text>
    <text
       xml:space="preserve"
       transform="matrix(0.26458333,0,0,0.26458333,-54.834667,-62.97305)"
       id="text31-2-9"
       style="font-size:15.8889px;writing-mode:lr-tb;direction:ltr;white-space:pre;shape-inside:url(#rect31-4-9);display:inline;fill:#000000;fill-opacity:1"><tspan
         x="481.4375"
         y="414.22643"
         id="tspan10"><tspan
           style="font-family:Montserrat;-inkscape-font-specification:Montserrat;fill:#24302b"
           id="tspan9">WEB DEVELOPMENT &amp; DIGITAL SERVICES</tspan></tspan></text>
  </g>
</svg>
