<?xml version="1.0" encoding="UTF-8" standalone="no"?>
<!-- Created with Inkscape (http://www.inkscape.org/) -->

<svg
   width="178.71066mm"
   height="31.44665mm"
   viewBox="0 0 178.71066 31.44665"
   version="1.1"
   id="svg1"
   sodipodi:docname="FERNLOGO_mob.svg"
   inkscape:version="1.4.3 (0d15f75, 2025-12-25)"
   xmlns:inkscape="http://www.inkscape.org/namespaces/inkscape"
   xmlns:sodipodi="http://sodipodi.sourceforge.net/DTD/sodipodi-0.dtd"
   xmlns="http://www.w3.org/2000/svg"
   xmlns:svg="http://www.w3.org/2000/svg">
  <sodipodi:namedview
     id="namedview1"
     pagecolor="#ffffff"
     bordercolor="#000000"
     borderopacity="0.25"
     inkscape:showpageshadow="2"
     inkscape:pageopacity="0.0"
     inkscape:pagecheckerboard="0"
     inkscape:deskcolor="#d1d1d1"
     inkscape:document-units="mm"
     inkscape:zoom="1"
     inkscape:cx="155.5"
     inkscape:cy="166.5"
     inkscape:window-width="1718"
     inkscape:window-height="1361"
     inkscape:window-x="-7"
     inkscape:window-y="0"
     inkscape:window-maximized="0"
     inkscape:current-layer="layer1" />
  <defs
     id="defs1">
    <rect
       x="481.43674"
       y="399.62396"
       width="353.20761"
       height="110.04459"
       id="rect31-6" />
    <rect
       x="481.43674"
       y="399.62396"
       width="343.70297"
       height="50.266483"
       id="rect31-4-9" />
  </defs>
  <g
     id="layer1"
     transform="matrix(1.8727008,0,0,1.9891927,-109.05899,-58.32492)">
    <path
       style="fill:#5f7f73;fill-opacity:1;stroke-width:0.0257053"
       d="m 58.421805,45.123914 c -0.178672,-0.06869 -0.214219,-0.155046 -0.16032,-0.389463 0.07838,-0.340831 0.312849,-0.917564 0.641878,-1.578827 0.108938,-0.218929 0.228713,-0.47533 0.266157,-0.569789 l 0.0681,-0.171745 v -0.732595 c 0,-0.966819 -0.01686,-1.04585 -0.467611,-2.195235 -0.274495,-0.699925 -0.416164,-1.13893 -0.486772,-1.50844 -0.0616,-0.322335 -0.06299,-1.391879 -0.0024,-1.750078 0.09868,-0.582172 0.275677,-1.108901 0.572346,-1.703368 0.188498,-0.37771 0.490206,-0.918706 0.495142,-0.887851 0.0016,0.0074 0.0059,0.153981 0.01022,0.3256 0.01541,0.596475 0.211003,1.682249 0.303081,1.682249 0.01365,0 0.05212,-0.100729 0.0855,-0.223851 0.08049,-0.296862 0.379215,-1.599491 0.379215,-1.653597 0,-0.02338 -0.06011,-0.09305 -0.133576,-0.154854 -0.18449,-0.155189 -0.218106,-0.23521 -0.217692,-0.518216 3.88e-4,-0.336217 0.05677,-0.419466 0.440649,-0.651794 l 0.150253,-0.09094 0.257224,0.188216 0.257225,0.18822 3.53e-4,0.380529 3.86e-4,0.380531 -0.273967,0.182092 -0.273969,0.182082 -0.205455,0.936941 -0.205455,0.936942 0.08873,0.101297 c 0.162939,0.186006 0.206152,0.450598 0.109727,0.671746 -0.05353,0.122687 -0.05364,0.125748 -0.01014,0.251702 0.342497,0.993889 0.403661,1.337304 0.404477,2.271034 3.88e-4,0.624075 -0.02493,0.862377 -0.148731,1.389716 -0.129998,0.553825 -0.129382,0.550295 -0.09516,0.550295 0.0352,0 0.260061,-0.258235 0.498013,-0.571838 0.152161,-0.200548 0.185571,-0.26427 0.241838,-0.461271 0.08822,-0.308818 0.136966,-0.646464 0.154712,-1.071609 0.01826,-0.437715 -0.0084,-0.692607 -0.162129,-1.544681 -0.151553,-0.840451 -0.178398,-1.078853 -0.177221,-1.573724 0.0024,-0.957748 0.274729,-1.866671 0.77268,-2.577729 0.242007,-0.345575 0.756499,-0.949929 1.097129,-1.288745 0.614486,-0.611231 0.5715,-0.556377 0.571958,-0.729751 0.0011,-0.268461 0.166969,-0.491244 0.366626,-0.491244 0.06912,0 0.121124,0.02526 0.209486,0.101749 0.110686,0.09582 0.12677,0.101437 0.27583,0.0964 0.202021,-0.0068 1.128006,-0.159231 1.189193,-0.19571 0.03149,-0.01875 0.05133,-0.06998 0.06202,-0.159851 0.01845,-0.154673 0.04084,-0.181167 0.337864,-0.39958 l 0.213164,-0.156731 0.279976,0.207762 0.279978,0.207756 v 0.330118 0.330124 l -0.104803,0.110656 c -0.05765,0.06088 -0.179286,0.152558 -0.270322,0.203751 -0.156578,0.08805 -0.171332,0.09135 -0.273013,0.06108 -0.147518,-0.04402 -0.189823,-0.04043 -0.238771,0.01987 -0.09576,0.117881 -0.319857,0.782904 -0.389412,1.155571 -0.05374,0.287867 -0.09496,0.869136 -0.07866,1.108919 0.01471,0.215847 0.02294,0.238725 0.173884,0.479804 0.06471,0.103369 0.07305,0.139009 0.07305,0.312093 0,0.180935 -0.0067,0.206184 -0.09006,0.341141 -0.119722,0.193779 -0.147146,0.272847 -0.238795,0.688419 -0.137122,0.621765 -0.352692,1.175429 -0.684935,1.759145 -0.165087,0.290048 -0.187868,0.343674 -0.145995,0.343674 0.07681,0 0.630219,-0.327503 0.940605,-0.556645 0.225493,-0.166466 0.320638,-0.31519 0.416235,-0.650613 0.108488,-0.380623 0.154772,-0.796483 0.205349,-1.845221 0.0327,-0.678471 0.07935,-1.042234 0.174871,-1.364229 0.203368,-0.685554 0.774647,-1.457651 1.306721,-1.766069 0.186717,-0.10824 0.563436,-0.281059 0.563436,-0.258481 0,0.0064 -0.05618,0.136451 -0.124875,0.288939 -0.249439,0.553838 -0.265543,0.658132 -0.338258,2.190879 -0.05684,1.198051 -0.199514,1.704036 -0.705783,2.502954 -0.12055,0.190238 -0.219179,0.358115 -0.219179,0.373081 0,0.05117 0.08162,0.02707 0.424224,-0.125358 0.620172,-0.275939 0.679492,-0.322582 0.823985,-0.647857 0.166089,-0.373874 0.187475,-0.50715 0.250361,-1.560157 0.05233,-0.876773 0.119052,-1.219353 0.327496,-1.682608 0.163008,-0.362253 0.461825,-0.737737 0.774308,-0.97297 0.18591,-0.139946 0.608805,-0.371232 0.631849,-0.345567 0.0092,0.01023 0.0024,0.05782 -0.01507,0.105714 -0.161237,0.44282 -0.210204,0.715902 -0.245829,1.37095 -0.05934,1.090874 -0.0771,1.331851 -0.109708,1.487543 -0.0709,0.33861 -0.305781,0.908495 -0.538427,1.306338 -0.07229,0.123634 -0.131445,0.236583 -0.131445,0.250992 0,0.04335 0.05642,0.03078 0.320321,-0.0711 0.314028,-0.121246 0.51885,-0.229368 0.63025,-0.33269 0.190569,-0.176753 0.299106,-0.540128 0.340237,-1.139119 0.07609,-1.10767 0.09619,-1.253606 0.220576,-1.601497 0.122034,-0.341277 0.258403,-0.566573 0.521262,-0.861208 0.218401,-0.244795 0.272091,-0.289217 0.505915,-0.418533 0.143865,-0.07958 0.267917,-0.137616 0.275669,-0.128983 0.0078,0.0087 -0.0083,0.09623 -0.03555,0.194636 -0.05076,0.183048 -0.07335,0.463172 -0.123898,1.53571 -0.03959,0.840463 -0.07998,1.028245 -0.32724,1.522659 -0.08671,0.173381 -0.164834,0.347079 -0.173599,0.386008 l -0.01595,0.07077 0.13035,-0.042 c 0.216544,-0.06975 0.575965,-0.276871 0.678326,-0.390925 0.202741,-0.225891 0.255407,-0.436537 0.305124,-1.220397 0.05008,-0.789859 0.08063,-0.947397 0.257797,-1.33007 0.17646,-0.381153 0.57194,-0.831556 0.881482,-1.0039 0.08057,-0.04486 0.149965,-0.07766 0.154236,-0.07291 0.0039,0.0046 -0.0035,0.05059 -0.01647,0.101814 -0.01331,0.05123 -0.03457,0.465567 -0.04721,0.920729 -0.0261,0.937862 -0.0436,1.056877 -0.231118,1.576802 -0.06054,0.167777 -0.103925,0.311878 -0.09644,0.320223 0.02182,0.02436 0.31537,-0.160852 0.492685,-0.310697 0.303259,-0.256253 0.353616,-0.398276 0.442221,-1.247169 0.02648,-0.253688 0.06498,-0.534526 0.08554,-0.624059 0.09073,-0.39505 0.329608,-0.787475 0.642119,-1.054869 0.14311,-0.122453 0.413545,-0.302233 0.428298,-0.284726 0.01076,0.01283 -0.02876,1.395748 -0.04585,1.604141 -0.008,0.0962 -0.0035,0.156017 0.0117,0.156017 0.0742,0 0.684123,-0.72938 1.005488,-1.202413 l 0.162503,-0.23919 1.66e-4,-0.412002 1.69e-4,-0.412016 0.270012,-0.183887 0.270003,-0.183895 0.203292,0.123462 c 0.237507,0.144244 0.339326,0.248135 0.360877,0.36818 0.0085,0.04759 0.01521,0.210054 0.01494,0.361155 l -2.71e-4,0.274709 -0.221942,0.145853 c -0.175566,0.115376 -0.252909,0.149915 -0.370174,0.16532 -0.167002,0.02195 -0.109632,-0.03783 -0.547425,0.570661 -0.134211,0.186545 -0.354395,0.472416 -0.489315,0.635274 -0.134915,0.162866 -0.241184,0.300708 -0.236142,0.30632 0.005,0.0059 0.08452,-0.0033 0.17664,-0.02025 0.100899,-0.01837 0.278801,-0.02371 0.447532,-0.0134 0.337047,0.0205 0.84988,0.06414 0.991593,0.08435 l 0.102725,0.01466 -0.09055,0.164541 c -0.180899,0.328718 -0.475849,0.60975 -0.869829,0.828776 l -0.194819,0.108313 -0.864524,0.0172 c -0.475488,0.0094 -0.904896,0.0299 -0.954246,0.04531 -0.123941,0.03898 -0.628681,0.417828 -0.628681,0.4719 0,0.0088 0.117807,0.0162 0.261794,0.01652 0.360119,5.92e-4 0.535302,0.03329 1.026271,0.190484 0.470913,0.150813 0.762741,0.215195 0.986014,0.217542 0.08195,0.0011 0.192181,0.0101 0.244939,0.02058 l 0.09593,0.01902 -0.132452,0.130657 c -0.213944,0.211031 -0.659558,0.529016 -0.88461,0.631243 -0.235853,0.107137 -0.512102,0.173812 -0.720136,0.173812 -0.258981,0 -0.568866,-0.08169 -1.157802,-0.305171 l -0.584459,-0.221795 -0.29223,-0.0011 -0.292239,-0.0011 -0.386568,0.201971 c -0.409277,0.213818 -0.427663,0.239665 -0.173541,0.243981 0.423046,0.0072 0.917059,0.166074 1.603239,0.515665 0.698892,0.356062 0.758656,0.376729 1.33969,0.463166 0.185457,0.02755 0.342855,0.05645 0.349757,0.06414 0.01876,0.02099 -0.415819,0.332693 -0.638247,0.457736 -0.511458,0.287554 -1.021217,0.376157 -1.602487,0.278536 -0.408333,-0.06857 -0.727207,-0.208192 -1.271126,-0.556559 -0.636515,-0.407666 -0.951118,-0.542016 -1.317526,-0.562649 -0.212889,-0.01198 -0.280127,-0.004 -0.499238,0.0586 -0.361197,0.103312 -0.869643,0.284001 -0.886945,0.315198 -0.02283,0.04114 0.02041,0.04981 0.46327,0.09254 0.80905,0.0781 1.185787,0.217056 2.042478,0.753353 0.867583,0.543109 1.463587,0.79953 1.885975,0.81142 0.06274,0.002 0.146961,0.0115 0.187139,0.02173 0.07269,0.01845 0.07212,0.01918 -0.110096,0.153269 -0.304316,0.223881 -0.871901,0.44779 -1.27634,0.503517 -0.247299,0.03404 -0.867963,0.01671 -1.097535,-0.03066 -0.465968,-0.09616 -0.903184,-0.315901 -1.619455,-0.81394 -1.134827,-0.789072 -1.67766,-0.961346 -2.390359,-0.758604 -0.75548,0.21491 -2.353679,1.086306 -3.332516,1.817 -0.479946,0.358271 -1.048744,0.847082 -1.021687,0.878017 0.0073,0.0083 0.149785,-0.03451 0.316584,-0.09514 0.681842,-0.248082 1.308297,-0.333999 1.987679,-0.272596 0.449615,0.04063 0.685354,0.09846 1.117559,0.27408 0.362291,0.147221 0.448784,0.161565 0.58682,0.0973 0.114276,-0.05319 0.193505,-0.05059 0.31384,0.01036 0.125482,0.06347 0.215199,0.182677 0.266109,0.353462 0.02548,0.08553 0.07401,0.168851 0.132709,0.227936 0.18287,0.184068 0.832967,0.531534 1.407417,0.752232 l 0.276096,0.106065 0.264103,-0.161992 c 0.14525,-0.08909 0.277804,-0.161979 0.294544,-0.161979 0.102827,0 0.455536,0.320799 0.535313,0.486883 0.02692,0.05599 0.04061,0.05924 0.179291,0.04284 0.843809,-0.09966 0.87661,-0.109094 1.03907,-0.299044 0.111948,-0.130891 0.191486,-0.174777 0.307437,-0.169628 0.12049,0.0052 0.192356,-0.05268 0.442626,-0.357287 0.296234,-0.360573 0.373961,-0.4844 0.365349,-0.582061 -0.0067,-0.07543 -0.01795,-0.08586 -0.11673,-0.10748 -0.06555,-0.01432 -0.2851,-0.01261 -0.547934,0.004 -0.427816,0.02759 -0.448132,0.03169 -0.828219,0.166133 -0.605588,0.214187 -0.840793,0.25842 -1.375922,0.258727 -0.343709,1.35e-4 -0.499602,-0.01145 -0.657529,-0.04903 -0.487978,-0.116116 -0.936961,-0.34029 -1.684356,-0.840983 -0.86151,-0.577144 -1.354151,-0.795534 -2.034764,-0.901977 -0.142844,-0.02234 -0.265029,-0.04648 -0.271526,-0.05378 -0.02025,-0.02253 0.07152,-0.08585 0.386452,-0.266437 0.500106,-0.286768 0.841251,-0.398219 1.389643,-0.453978 0.467614,-0.04759 1.043403,0.02674 1.480802,0.191046 0.235161,0.08834 0.571036,0.28545 1.134685,0.665944 1.074591,0.725382 1.530743,0.911601 2.429635,0.991875 0.549465,0.04903 0.724928,0.004 0.724928,-0.186315 0,-0.04798 0.02482,-0.102591 0.06697,-0.14713 0.08897,-0.09406 0.419744,-0.319211 0.468968,-0.319211 0.02143,0 0.150691,0.07361 0.287273,0.163568 l 0.248298,0.163575 v 0.336309 c 0,0.320165 -0.0028,0.34023 -0.06158,0.417849 -0.07566,0.100185 -0.353046,0.298558 -0.446629,0.319413 -0.04823,0.01074 -0.108144,-0.0078 -0.200378,-0.06172 -0.07237,-0.04232 -0.137993,-0.08049 -0.14583,-0.08473 -0.0204,-0.01099 -0.529016,0.646692 -0.633446,0.819108 -0.05437,0.08972 -0.09345,0.192303 -0.103044,0.270249 -0.02889,0.23474 -0.153222,0.428549 -0.306342,0.477478 -0.09409,0.03006 -0.161826,0.0052 -0.273515,-0.09988 -0.045,-0.04239 -0.0983,-0.09078 -0.118387,-0.107518 -0.05387,-0.04486 -1.069213,0.07461 -1.096539,0.129025 -0.08836,0.175904 -0.205669,0.32919 -0.335355,0.438187 -0.227546,0.191247 -0.234776,0.191158 -0.523899,-0.0064 l -0.248124,-0.169456 -0.170466,0.04394 c -0.318987,0.0822 -0.510899,0.101548 -1.156757,0.116665 -0.53552,0.0125 -0.684719,0.0074 -0.876693,-0.02974 -0.439908,-0.08534 -1.067021,-0.352666 -1.850799,-0.788969 -1.074546,-0.598161 -1.592558,-0.772773 -2.293654,-0.773142 -0.625926,-2.74e-4 -1.001688,0.162304 -1.438318,0.622499 -0.242611,0.255708 -0.623873,0.766881 -0.583246,0.781967 0.01439,0.0052 0.16276,-0.05157 0.329596,-0.126529 0.692336,-0.311039 1.498312,-0.461372 2.061755,-0.384553 0.623152,0.08494 0.872924,0.178744 2.240447,0.841334 1.060402,0.513796 1.710268,0.687167 2.569204,0.685399 l 0.438349,-0.0011 -0.06587,0.05879 c -0.110534,0.09865 -0.573811,0.400799 -0.908234,0.592373 -0.914501,0.523839 -1.66672,0.727891 -2.38656,0.647353 -0.630066,-0.07049 -0.9926,-0.19482 -1.802103,-0.618004 -1.235464,-0.645882 -1.429484,-0.726127 -2.015181,-0.833546 -0.05019,-0.0092 -0.09132,-0.02746 -0.09132,-0.04069 0,-0.02688 0.302324,-0.161428 0.52183,-0.2322 0.299192,-0.09645 0.488318,-0.02962 1.568745,0.554132 0.383796,0.207365 0.772466,0.409546 0.863728,0.449288 0.408249,0.177796 0.838301,0.246555 1.404705,0.224601 0.406891,-0.01576 0.682811,-0.07887 1.156877,-0.264549 0.32333,-0.126638 0.330162,-0.155468 0.05127,-0.216228 -0.33889,-0.07381 -0.807918,-0.264357 -1.816846,-0.738088 -1.209328,-0.56784 -1.444225,-0.63435 -2.155213,-0.610275 -0.241089,0.0082 -0.536976,0.03472 -0.657519,0.05905 -0.453529,0.09148 -1.079901,0.377075 -1.483937,0.676603 -0.37432,0.277497 -0.728273,0.74161 -0.962631,1.26219 -0.0507,0.112716 -0.155224,0.369781 -0.232174,0.571246 -0.181687,0.475671 -0.249755,0.62398 -0.286603,0.624424 -0.0165,1.38e-4 -0.05195,0.0059 -0.07874,0.01206 -0.02678,0.0064 -0.06514,0.0052 -0.08523,-0.0028 z m 9.604231,-3.51039 c 0.121896,-0.04062 0.09363,-0.07382 -0.156894,-0.184274 -0.101283,-0.0446 -0.408122,-0.203101 -0.681875,-0.352113 -0.273754,-0.149 -0.529456,-0.279175 -0.568227,-0.289261 -0.03875,-0.01002 -0.121776,-0.0033 -0.184463,0.01416 -0.235439,0.06723 -0.412928,-0.04792 -0.576639,-0.374092 -0.04799,-0.09561 -0.110936,-0.191125 -0.139874,-0.212254 -0.08901,-0.06498 -0.563756,-0.227081 -0.887951,-0.303177 -0.266116,-0.06244 -0.367535,-0.07246 -0.746317,-0.07351 -0.442944,-0.0011 -0.698006,0.03256 -1.041075,0.137911 -0.220412,0.06768 -0.212996,0.07313 0.322672,0.236484 0.362655,0.110597 0.615868,0.229393 1.423132,0.667657 1.349191,0.732488 1.546184,0.792408 2.546352,0.774572 0.353337,-0.0065 0.635188,-0.02348 0.691159,-0.04212 z m -8.228755,-0.779409 c 0.09123,-0.253911 0.220716,-0.83137 0.269566,-1.202137 0.06139,-0.466022 0.04055,-1.150797 -0.0484,-1.58632 -0.07363,-0.36077 -0.278689,-1.062013 -0.342109,-1.169844 -0.02241,-0.0381 -0.0769,-0.08609 -0.121114,-0.106676 -0.10516,-0.04896 -0.225893,-0.163471 -0.266698,-0.252952 -0.01787,-0.03926 -0.04038,-0.197743 -0.04991,-0.352184 -0.0165,-0.267467 -0.09186,-0.678824 -0.167066,-0.91306 l -0.03485,-0.10853 -0.06469,0.161366 c -0.217895,0.543453 -0.349005,1.330245 -0.322349,1.934345 0.02712,0.615593 0.125497,1.005163 0.500978,1.984767 0.255463,0.666478 0.420773,1.185145 0.477293,1.497544 0.02275,0.125655 0.04523,0.243726 0.05003,0.262386 0.01877,0.07319 0.05654,0.02611 0.119356,-0.148705 z m 9.885905,-1.036414 c 0.07032,-0.03097 0.07067,-0.03217 0.02431,-0.08264 -0.02583,-0.02819 -0.172995,-0.129538 -0.327029,-0.225277 -0.154023,-0.09574 -0.417034,-0.271011 -0.584463,-0.389494 -0.622279,-0.440377 -0.957006,-0.628003 -1.342218,-0.75238 -0.336577,-0.108672 -0.560381,-0.133556 -1.075302,-0.119565 -0.435189,0.01186 -0.553914,0.02707 -0.553241,0.0712 1.23e-4,0.0096 0.167264,0.112024 0.371374,0.227619 0.204113,0.115591 0.579333,0.34626 0.833819,0.512599 0.732136,0.478544 1.138923,0.676025 1.582928,0.76844 0.228738,0.04758 0.954094,0.04049 1.069783,-0.01047 z m -7.30055,-0.914302 c 0.626273,-0.499645 0.805109,-0.734827 0.911624,-1.198838 0.1174,-0.511462 0.145266,-1.147985 0.08457,-1.931656 -0.06027,-0.778074 -0.06892,-1.083547 -0.03862,-1.364309 0.05726,-0.530659 0.211297,-1.084111 0.407333,-1.463685 l 0.08791,-0.170216 -0.10349,-0.567614 c -0.05692,-0.312193 -0.115033,-0.595846 -0.129139,-0.630331 -0.06124,-0.149767 -0.17427,-0.10136 -0.430831,0.184487 -0.41735,0.465005 -0.562253,0.891289 -0.600231,1.765855 -0.01756,0.404604 0.01105,0.858341 0.09891,1.567484 0.124078,1.001487 0.132659,1.353591 0.0476,1.952419 -0.07623,0.536655 -0.207961,1.011891 -0.436599,1.575004 -0.128569,0.316667 -0.158884,0.434015 -0.112103,0.434015 0.01202,0 0.107877,-0.06867 0.213081,-0.152615 z m -0.252548,-1.142381 c 0.181514,-0.603356 0.200575,-0.742083 0.198636,-1.445447 -0.0016,-0.504809 -0.01307,-0.704394 -0.06768,-1.15283 -0.03633,-0.29829 -0.07725,-0.792791 -0.09101,-1.098897 -0.01377,-0.306109 -0.03293,-0.629811 -0.04247,-0.719351 l -0.01748,-0.1628 -0.178754,0.298462 c -0.209732,0.35019 -0.459672,0.910239 -0.548885,1.229918 -0.191274,0.685414 -0.183124,1.250713 0.03582,2.482817 0.129934,0.7312 0.188731,1.126713 0.206397,1.388294 0.02672,0.39581 0.02322,0.396575 0.217742,-0.04688 0.09642,-0.219776 0.225895,-0.567761 0.287719,-0.773289 z m 9.36102,0.451089 c 0.08481,-0.0165 0.153825,-0.03774 0.153356,-0.04752 -0.001,-0.01642 -1.128467,-0.717335 -1.35734,-0.843666 -0.515299,-0.284433 -1.112823,-0.433294 -1.746664,-0.43515 l -0.145995,-2.73e-4 0.380519,0.282986 c 1.102181,0.81967 1.627415,1.05944 2.344745,1.070363 0.119444,0.002 0.286572,-0.01015 0.371379,-0.02655 z m -7.493169,-1.196634 c 0.293594,-0.496549 0.519213,-1.06404 0.658961,-1.657521 l 0.07,-0.297297 -0.09356,-0.125488 c -0.143066,-0.191874 -0.172086,-0.274886 -0.172086,-0.492219 0,-0.106191 -0.01105,-0.215998 -0.02445,-0.244025 -0.03915,-0.08145 -0.516751,-0.547331 -0.536606,-0.523402 -0.0099,0.0119 -0.04253,0.137696 -0.07258,0.279465 -0.07334,0.346424 -0.08933,0.932126 -0.04563,1.668465 0.01861,0.313509 0.03254,0.811159 0.03102,1.105908 -0.0016,0.294722 0.0061,0.535867 0.01713,0.535867 0.01105,0 0.08651,-0.112388 0.167727,-0.249753 z m 9.270302,-0.393117 c 0.0627,-0.02683 0.0327,-0.08766 -0.07924,-0.160751 -0.172178,-0.112427 -0.854528,-0.457253 -1.032294,-0.521665 -0.264302,-0.09578 -0.508903,-0.143403 -0.818832,-0.159399 -0.289412,-0.01494 -0.423152,-0.002 -0.423152,0.04272 0,0.03065 0.643412,0.436877 0.925402,0.584367 0.271206,0.141845 0.469613,0.203326 0.75493,0.233913 0.199793,0.02143 0.605296,0.0099 0.673184,-0.01916 z m -6.870039,-0.876582 c 0.438191,-0.753556 0.571392,-1.411927 0.571392,-2.824182 0,-0.573672 -0.0101,-0.636969 -0.08959,-0.563439 -0.06934,0.06414 -0.378828,0.599036 -0.460066,0.795173 -0.153185,0.369803 -0.187932,0.615824 -0.24164,1.710615 -0.03382,0.688735 -0.05499,0.954865 -0.09844,1.234562 l -0.01479,0.09497 0.115282,-0.13566 c 0.0634,-0.07462 0.161425,-0.215031 0.217829,-0.312034 z m 2.056312,-0.644412 c 0.229989,-0.348329 0.405437,-0.816108 0.463406,-1.235464 0.02684,-0.193951 0.07177,-1.104525 0.0725,-1.468493 l 3.87e-4,-0.214485 -0.05059,0.05104 c -0.07524,0.07588 -0.278296,0.423306 -0.360036,0.616045 -0.152794,0.360281 -0.17177,0.481266 -0.23503,1.498391 -0.02041,0.328312 -0.04388,0.673243 -0.05217,0.76652 -0.01062,0.118912 -0.0067,0.169581 0.01279,0.169581 0.01531,0 0.08225,-0.08242 0.148763,-0.183151 z m 6.064405,-0.225083 c 0.209494,-0.03703 0.24353,-0.04994 0.24353,-0.09261 0,-0.04466 -0.104846,-0.09184 -0.462701,-0.208193 -0.262501,-0.08535 -0.30295,-0.09107 -0.645345,-0.09122 -0.652376,-2.74e-4 -0.668103,0.07411 -0.06413,0.303373 0.277738,0.105436 0.330151,0.116778 0.539004,0.116698 0.127239,-5.1e-5 0.302577,-0.01269 0.389639,-0.02806 z m -4.031401,-0.52484 c 0.133397,-0.208268 0.266797,-0.517528 0.316836,-0.734483 0.06923,-0.300135 0.11204,-1.111062 0.0708,-1.340837 -0.02876,-0.160372 -0.106562,-0.08339 -0.258902,0.256267 -0.177242,0.395202 -0.222078,0.626084 -0.261379,1.346165 -0.03075,0.563032 -0.03086,0.680868 -3.87e-4,0.660052 0.01319,-0.0091 0.07316,-0.09331 0.133278,-0.187164 z m -5.821006,-0.387568 c 0.0086,-0.02501 0.02638,-0.211159 0.03958,-0.413778 0.02497,-0.384361 0.06444,-0.89104 0.08834,-1.13491 0.0165,-0.168765 -0.0065,-0.179675 -0.114346,-0.05423 -0.139031,0.161564 -0.510343,0.725798 -0.582598,0.885269 l -0.07129,0.157344 0.21145,0.230408 c 0.226085,0.246377 0.361226,0.375314 0.393351,0.375314 0.01093,0 0.02689,-0.02042 0.03555,-0.04531 z m 7.715824,-0.517632 c 0.0656,-0.08122 0.208923,-0.419867 0.246867,-0.583257 0.0199,-0.08576 0.04376,-0.354378 0.05296,-0.596934 l 0.01682,-0.441016 -0.06519,0.06688 c -0.147779,0.151613 -0.280738,0.583163 -0.329362,1.069006 -0.04918,0.491131 -0.02889,0.617523 0.07791,0.485321 z m 3.342036,-0.496666 c 0.09376,-0.03237 0.202696,-0.07728 0.242083,-0.09986 0.06812,-0.03906 0.06938,-0.04283 0.02575,-0.07838 -0.131884,-0.107448 -0.961915,0.03652 -0.961915,0.166848 0,0.106572 0.399094,0.11313 0.694051,0.01145 z M 64.337794,32.06694 c 0.168365,-0.191728 0.46776,-0.509963 0.665317,-0.707192 0.197559,-0.197228 0.359205,-0.377814 0.359205,-0.401319 0,-0.053 -0.114966,-0.04219 -0.815813,0.0763 -0.537167,0.09086 -0.55407,0.09893 -0.645133,0.30854 -0.02696,0.06192 -0.0489,0.162338 -0.0489,0.223136 0,0.17235 0.1304,0.849117 0.163607,0.849117 0.0086,0 0.15337,-0.156864 0.321732,-0.348589 z m 9.88067,0.165449 c 0.130803,-0.184455 0.198789,-0.436561 0.219488,-0.814006 0.0176,-0.320729 -0.0057,-0.353751 -0.100969,-0.144009 -0.134064,0.29477 -0.263635,1.005489 -0.183311,1.005489 0.01709,0 0.04631,-0.02135 0.06479,-0.04746 z"
       id="path31-7" />
    <text
       xml:space="preserve"
       transform="matrix(0.26458333,0,0,0.26458333,-48.298797,-76.107279)"
       id="text31-7"
       style="font-size:48px;writing-mode:lr-tb;direction:ltr;white-space:pre;shape-inside:url(#rect31-6);display:inline;fill:#24302b;fill-opacity:1"><tspan
         x="481.4375"
         y="443.73954"
         id="tspan3"><tspan
           style="font-weight:bold;font-family:Montserrat;-inkscape-font-specification:'Montserrat Bold'"
           id="tspan1">Fern </tspan><tspan
           style="font-family:Montserrat;-inkscape-font-specification:Montserrat"
           id="tspan2">Digital</tspan></tspan></text>
  </g>
</svg>
