<?xml version="1.0" encoding="UTF-8" standalone="no"?>
<!-- Created with Inkscape (http://www.inkscape.org/) -->

<svg
   width="47.012169mm"
   height="42.294407mm"
   viewBox="0 0 47.012169 42.294407"
   version="1.1"
   id="svg1"
   xmlns="http://www.w3.org/2000/svg"
   xmlns:svg="http://www.w3.org/2000/svg">
  <defs
     id="defs1" />
  <g
     id="layer1"
     transform="translate(-65.352081,-92.339582)">
    <path
       style="fill:#5f7f73;fill-opacity:1;stroke-width:0.0663337"
       d="m 65.814068,134.61878 c -0.444727,-0.18376 -0.533207,-0.41481 -0.39905,-1.04197 0.195096,-0.91185 0.778704,-2.45484 1.597681,-4.22397 0.271156,-0.58572 0.569283,-1.2717 0.662483,-1.52441 l 0.169498,-0.45948 v -1.95998 c 0,-2.58662 -0.04195,-2.79806 -1.163919,-5.87311 -0.683238,-1.87257 -1.03586,-3.04708 -1.211607,-4.03566 -0.153337,-0.86237 -0.156783,-3.72382 -0.006,-4.68214 0.245627,-1.55753 0.68618,-2.96674 1.424614,-4.55717 0.469183,-1.01052 1.220155,-2.4579 1.232441,-2.37535 0.0039,0.0199 0.01461,0.41196 0.02545,0.87111 0.03835,1.5958 0.525205,4.50067 0.754392,4.50067 0.03399,0 0.129722,-0.26949 0.21284,-0.59889 0.20033,-0.79422 0.943893,-4.27926 0.943893,-4.42401 0,-0.0625 -0.14961,-0.24895 -0.332479,-0.4143 -0.459211,-0.41519 -0.542883,-0.62928 -0.541853,-1.38643 9.65e-4,-0.89951 0.141314,-1.12223 1.096807,-1.7438 l 0.37399,-0.24329 0.64025,0.50355 0.64025,0.50356 8.78e-4,1.01806 9.63e-4,1.01807 -0.681925,0.48717 -0.681927,0.48714 -0.511394,2.50668 -0.511391,2.50668 0.220868,0.27101 c 0.405567,0.49764 0.513126,1.20553 0.273118,1.79718 -0.133224,0.32824 -0.133523,0.33643 -0.02524,0.6734 0.852499,2.65904 1.004742,3.57781 1.006774,6.0759 9.64e-4,1.66965 -0.06206,2.3072 -0.370205,3.71803 -0.323573,1.4817 -0.322037,1.47226 -0.236869,1.47226 0.08762,0 0.647311,-0.69088 1.239591,-1.52989 0.378739,-0.53655 0.461898,-0.70702 0.601952,-1.23408 0.2196,-0.82621 0.34092,-1.72954 0.385091,-2.86697 0.04545,-1.17106 -0.02109,-1.853 -0.403554,-4.13262 -0.377226,-2.24854 -0.444045,-2.88635 -0.441115,-4.21033 0.006,-2.56234 0.683821,-4.99407 1.923257,-6.89643 0.602373,-0.92454 1.882978,-2.54142 2.730832,-3.447889 1.5295,-1.635279 1.422505,-1.488525 1.423644,-1.952367 0.0028,-0.718238 0.415599,-1.314267 0.91256,-1.314267 0.172026,0 0.301484,0.06759 0.521425,0.272217 0.275506,0.256349 0.315541,0.271383 0.68656,0.257916 0.502845,-0.0183 2.807688,-0.426005 2.959989,-0.523601 0.07839,-0.05017 0.127775,-0.187203 0.154386,-0.427662 0.04594,-0.413814 0.10165,-0.484693 0.840968,-1.069032 l 0.530577,-0.419318 0.696883,0.555842 0.696884,0.55583 v 0.883194 0.883209 l -0.26086,0.296048 c -0.143486,0.162875 -0.446259,0.408152 -0.672854,0.545112 -0.389733,0.235572 -0.426457,0.244402 -0.679547,0.163393 -0.367182,-0.117761 -0.472484,-0.108173 -0.594318,0.05315 -0.238365,0.31538 -0.796147,2.094575 -0.969272,3.091605 -0.133767,0.77015 -0.236363,2.32528 -0.195793,2.96679 0.03661,0.57747 0.0571,0.63868 0.432809,1.28366 0.161071,0.27655 0.181839,0.3719 0.181839,0.83497 0,0.48407 -0.01667,0.55162 -0.224156,0.91269 -0.297998,0.51843 -0.366258,0.72997 -0.594377,1.84178 -0.341307,1.66347 -0.877875,3.14473 -1.704852,4.7064 -0.410916,0.77599 -0.467618,0.91946 -0.363392,0.91946 0.191172,0 1.56866,-0.8762 2.341233,-1.48924 0.561267,-0.44536 0.798089,-0.84326 1.036036,-1.74064 0.270038,-1.01832 0.385239,-2.1309 0.511132,-4.93669 0.08137,-1.81517 0.197504,-2.78838 0.435266,-3.64984 0.506198,-1.83412 1.928151,-3.899783 3.252522,-4.72492 0.464753,-0.289585 1.402432,-0.751945 1.402432,-0.691537 0,0.01731 -0.139835,0.365058 -0.310822,0.773022 -0.620871,1.481732 -0.660957,1.760762 -0.841949,5.861455 -0.141464,3.20525 -0.496603,4.55896 -1.756744,6.69638 -0.300059,0.50895 -0.545553,0.95809 -0.545553,0.99813 0,0.13692 0.203168,0.0724 1.055926,-0.33538 1.543652,-0.73824 1.691302,-0.86303 2.050958,-1.73327 0.413404,-1.00026 0.466636,-1.35682 0.623163,-4.17403 0.130266,-2.3457 0.296331,-3.26224 0.815165,-4.50163 0.405737,-0.969163 1.149514,-1.973731 1.927305,-2.603068 0.462742,-0.374412 1.515359,-0.993192 1.572718,-0.924527 0.02292,0.02735 0.006,0.154679 -0.03749,0.282825 -0.401331,1.184716 -0.523212,1.915316 -0.611887,3.66783 -0.1477,2.91851 -0.19191,3.56321 -0.273069,3.97975 -0.176465,0.90591 -0.761113,2.43058 -1.340184,3.49496 -0.179929,0.33077 -0.327176,0.63295 -0.327176,0.6715 0,0.11599 0.140416,0.0824 0.797301,-0.1902 0.781637,-0.32438 1.291456,-0.61365 1.568739,-0.89008 0.47434,-0.47288 0.744496,-1.44505 0.846875,-3.04758 0.189384,-2.96345 0.239415,-3.35389 0.549027,-4.28463 0.303752,-0.91305 0.643184,-1.515805 1.297459,-2.304068 0.543615,-0.654922 0.677255,-0.773769 1.259259,-1.119739 0.35809,-0.212907 0.666863,-0.368176 0.686159,-0.345079 0.01942,0.02315 -0.02051,0.257447 -0.08848,0.520729 -0.126351,0.489723 -0.18257,1.239163 -0.308391,4.108617 -0.09854,2.24857 -0.19907,2.75096 -0.814525,4.07371 -0.215814,0.46386 -0.410283,0.92857 -0.4321,1.03272 l -0.0397,0.18935 0.324447,-0.11237 c 0.538995,-0.18659 1.43362,-0.74074 1.688405,-1.04588 0.504635,-0.60434 0.635725,-1.1679 0.759475,-3.26503 0.124666,-2.11318 0.200705,-2.53466 0.641676,-3.558457 0.439216,-1.019735 1.423596,-2.224737 2.194066,-2.685823 0.20054,-0.120008 0.37328,-0.207788 0.38391,-0.195061 0.01,0.01213 -0.009,0.135345 -0.041,0.272392 -0.0331,0.137076 -0.0861,1.245571 -0.11751,2.463307 -0.065,2.509152 -0.1085,2.827562 -0.57527,4.218562 -0.15068,0.44887 -0.25867,0.83439 -0.24005,0.85672 0.0543,0.0652 0.78498,-0.43034 1.22633,-0.83124 0.75483,-0.68557 0.88018,-1.06554 1.10072,-3.33666 0.0659,-0.678714 0.16173,-1.430064 0.21291,-1.669603 0.22583,-1.056909 0.82042,-2.106799 1.59828,-2.822183 0.35621,-0.32761 1.02934,-0.808589 1.06606,-0.761751 0.0268,0.03431 -0.0716,3.734168 -0.11412,4.291701 -0.0198,0.257366 -0.009,0.417404 0.0291,0.417404 0.18469,0 1.70283,-1.951372 2.50273,-3.21692 l 0.40449,-0.639927 4.1e-4,-1.102266 4.2e-4,-1.102301 0.67208,-0.491971 0.67205,-0.491991 0.50601,0.330309 c 0.59117,0.38591 0.84461,0.663858 0.89825,0.985025 0.0212,0.127328 0.0379,0.561976 0.0372,0.966228 l -6.7e-4,0.734957 -0.55243,0.390212 c -0.437,0.308675 -0.62951,0.401081 -0.92139,0.442295 -0.41568,0.0587 -0.27288,-0.10121 -1.36258,1.526741 -0.33406,0.499079 -0.88211,1.263894 -1.21794,1.699604 -0.33582,0.435729 -0.60032,0.804507 -0.58778,0.819527 0.0125,0.0157 0.21039,-0.009 0.43967,-0.0542 0.25115,-0.0491 0.69396,-0.0634 1.11394,-0.0358 0.83894,0.0549 2.11542,0.17159 2.46815,0.22567 l 0.25569,0.0392 -0.22538,0.44021 c -0.45027,0.87945 -1.18442,1.63132 -2.16507,2.2173 l -0.48491,0.28978 -2.15187,0.046 c -1.18352,0.0252 -2.25235,0.08 -2.37518,0.12124 -0.3085,0.10427 -1.56483,1.11785 -1.56483,1.26252 0,0.0235 0.29322,0.0433 0.65162,0.0442 0.89636,0.002 1.3324,0.0891 2.55446,0.50962 1.17213,0.40349 1.89852,0.57573 2.45426,0.58201 0.20399,0.003 0.47835,0.027 0.60967,0.0551 l 0.23877,0.0509 -0.32968,0.34956 c -0.53253,0.56459 -1.64169,1.41532 -2.20186,1.68882 -0.58706,0.28663 -1.27466,0.46501 -1.79247,0.46501 -0.64463,0 -1.41595,-0.21855 -2.88185,-0.81645 l -1.45477,-0.59339 -0.72738,-0.003 -0.727398,-0.003 -0.962195,0.54035 c -1.01872,0.57205 -1.064485,0.6412 -0.431956,0.65275 1.052992,0.0193 2.282619,0.44431 3.990569,1.3796 1.7396,0.9526 1.88835,1.0079 3.33459,1.23915 0.46162,0.0737 0.85339,0.15102 0.87057,0.17159 0.0467,0.0562 -1.035,0.89008 -1.58864,1.22462 -1.27306,0.76932 -2.54189,1.00637 -3.98871,0.74519 -1.016365,-0.18346 -1.810065,-0.55699 -3.163919,-1.48901 -1.584333,-1.09067 -2.367401,-1.4501 -3.279417,-1.5053 -0.529896,-0.0321 -0.697254,-0.0108 -1.24264,0.15676 -0.899043,0.2764 -2.164603,0.75982 -2.207667,0.84328 -0.05682,0.11008 0.05079,0.13326 1.15311,0.24759 2.013784,0.20896 2.951509,0.58071 5.083877,2.01551 2.159473,1.45303 3.642966,2.13906 4.694316,2.17087 0.15617,0.005 0.3658,0.0308 0.46581,0.0581 0.18092,0.0494 0.1795,0.0513 -0.27404,0.41005 -0.75746,0.59897 -2.170219,1.19801 -3.176897,1.34711 -0.615545,0.0911 -2.160422,0.0447 -2.731845,-0.082 -1.159827,-0.25725 -2.248087,-0.84515 -4.030938,-2.1776 -2.824666,-2.11108 -4.175816,-2.57198 -5.949776,-2.02956 -1.880445,0.57496 -5.858473,2.90629 -8.294872,4.86118 -1.19462,0.95851 -2.610397,2.26627 -2.543049,2.34903 0.01835,0.0223 0.372825,-0.0923 0.787997,-0.25453 1.697156,-0.66371 3.256445,-0.89357 4.947475,-0.7293 1.119126,0.10869 1.705897,0.26341 2.781685,0.73327 0.90177,0.39388 1.117057,0.43225 1.460638,0.26033 0.284442,-0.14231 0.481647,-0.13535 0.781171,0.0277 0.312334,0.16982 0.535645,0.48874 0.662365,0.94565 0.06343,0.22883 0.184217,0.45174 0.330322,0.60982 0.455178,0.49245 2.073313,1.42206 3.503162,2.01251 l 0.687221,0.28377 0.657372,-0.43339 c 0.361538,-0.23834 0.691474,-0.43336 0.733142,-0.43336 0.255944,0 1.13386,0.85826 1.332432,1.3026 0.067,0.14979 0.10107,0.1585 0.44627,0.1146 2.1003,-0.26663 2.181942,-0.29187 2.58632,-0.80006 0.278643,-0.35019 0.476619,-0.4676 0.765231,-0.45382 0.299909,0.0139 0.478787,-0.14092 1.101728,-0.95588 0.737346,-0.96468 0.930815,-1.29596 0.90938,-1.55724 -0.01667,-0.20179 -0.04466,-0.2297 -0.290551,-0.28755 -0.16315,-0.0383 -0.709632,-0.0337 -1.363845,0.0107 -1.064865,0.0738 -1.115433,0.0848 -2.061497,0.44447 -1.507352,0.57303 -2.092794,0.69137 -3.424769,0.6922 -0.855518,3.6e-4 -1.243545,-0.0306 -1.636638,-0.13117 -1.214611,-0.31066 -2.332162,-0.91041 -4.192481,-2.24996 -2.144362,-1.54408 -3.370578,-2.12836 -5.064676,-2.41313 -0.355547,-0.0598 -0.659674,-0.12437 -0.675847,-0.14388 -0.05041,-0.0603 0.178019,-0.22969 0.96191,-0.71283 1.244797,-0.76721 2.093934,-1.06539 3.458921,-1.21456 1.163921,-0.12733 2.597103,0.0716 3.68582,0.51112 0.585333,0.23633 1.421352,0.76369 2.824313,1.78166 2.674734,1.94068 3.81013,2.43889 6.047536,2.65365 1.367657,0.13117 1.804395,0.0107 1.804395,-0.49847 0,-0.12836 0.06178,-0.27447 0.16669,-0.39362 0.221445,-0.25166 1.044765,-0.85402 1.167285,-0.85402 0.0533,0 0.37509,0.19693 0.71505,0.43761 l 0.61803,0.43762 v 0.89976 c 0,0.85657 -0.007,0.91025 -0.15328,1.11791 -0.18832,0.26803 -0.87876,0.79876 -1.11169,0.85456 -0.12004,0.0287 -0.26918,-0.0207 -0.49876,-0.16513 -0.18013,-0.1132 -0.34347,-0.21533 -0.36298,-0.22668 -0.0508,-0.0294 -1.316753,1.73016 -1.576688,2.19143 -0.135321,0.24005 -0.232597,0.51449 -0.256483,0.72303 -0.07189,0.62802 -0.381381,1.14653 -0.762509,1.27743 -0.234193,0.0804 -0.402796,0.0139 -0.680796,-0.2672 -0.112007,-0.1134 -0.244673,-0.24288 -0.294674,-0.28765 -0.134066,-0.12001 -2.661347,0.19962 -2.729364,0.34519 -0.21993,0.47061 -0.511927,0.88071 -0.834724,1.17232 -0.566376,0.51166 -0.584373,0.51142 -1.304022,-0.0173 l -0.6176,-0.45336 -0.424301,0.11756 c -0.79398,0.2199 -1.271663,0.27168 -2.879251,0.31212 -1.332948,0.0334 -1.704315,0.0199 -2.18215,-0.0796 -1.094965,-0.22831 -2.655892,-0.94351 -4.606771,-2.11079 -2.674625,-1.60032 -3.963993,-2.06747 -5.709071,-2.06846 -1.557976,-7.3e-4 -2.493274,0.43423 -3.580077,1.66543 -0.603875,0.68412 -1.552866,2.0517 -1.451742,2.09206 0.03582,0.0139 0.405121,-0.13795 0.820389,-0.33851 1.723274,-0.83215 3.729406,-1.23435 5.131857,-1.02883 1.551068,0.22726 2.172769,0.47821 5.576632,2.2509 2.639418,1.3746 4.256982,1.83843 6.394932,1.8337 l 1.091084,-0.003 -0.163955,0.15729 c -0.275126,0.26391 -1.428256,1.07229 -2.260659,1.58483 -2.276258,1.40147 -4.148588,1.94739 -5.940319,1.73191 -1.568282,-0.18857 -2.470654,-0.52121 -4.485564,-1.6534 -3.07516,-1.72798 -3.558089,-1.94267 -5.01593,-2.23005 -0.124947,-0.0246 -0.22731,-0.0735 -0.22731,-0.10885 0,-0.0719 0.752505,-0.43188 1.298873,-0.62123 0.74471,-0.25804 1.215458,-0.0793 3.904718,1.48252 0.955297,0.55478 1.922723,1.09569 2.149879,1.20202 1.016163,0.47567 2.086593,0.65963 3.496413,0.6009 1.012783,-0.0422 1.699566,-0.21102 2.879549,-0.70777 0.804793,-0.33881 0.821799,-0.41594 0.127606,-0.5785 -0.843522,-0.19745 -2.010966,-0.70726 -4.52226,-1.97467 -3.010104,-1.5192 -3.59478,-1.69713 -5.36448,-1.63272 -0.600089,0.0219 -1.336571,0.0929 -1.63661,0.15798 -1.128867,0.24473 -2.687951,1.00882 -3.693627,1.81017 -0.93171,0.74242 -1.812724,1.9841 -2.396057,3.37685 -0.126201,0.30156 -0.386364,0.98931 -0.577898,1.52831 -0.452233,1.2726 -0.621658,1.66939 -0.713374,1.67057 -0.04107,3.8e-4 -0.12931,0.0157 -0.195989,0.0323 -0.06665,0.0173 -0.162139,0.0139 -0.212142,-0.007 z m 23.905619,-9.39166 c 0.303409,-0.10869 0.23306,-0.19751 -0.390522,-0.493 -0.252099,-0.11931 -1.015842,-0.54338 -1.697236,-0.94204 -0.681391,-0.39864 -1.317853,-0.7469 -1.414355,-0.77389 -0.09644,-0.0268 -0.30311,-0.009 -0.459142,0.0379 -0.586024,0.17986 -1.027807,-0.12821 -1.435297,-1.00084 -0.11946,-0.25579 -0.276128,-0.51134 -0.348156,-0.56787 -0.221561,-0.17383 -1.403228,-0.60753 -2.210173,-0.81111 -0.662383,-0.16705 -0.914822,-0.19387 -1.857639,-0.19667 -1.102517,-0.003 -1.737385,0.0871 -2.59131,0.36896 -0.548621,0.18108 -0.53016,0.19564 0.803157,0.63269 0.902673,0.29589 1.532938,0.61371 3.542277,1.78624 3.358232,1.95969 3.848561,2.12 6.338053,2.07228 0.87948,-0.0175 1.581025,-0.0628 1.720343,-0.11269 z M 69.237724,123.1419 c 0.22709,-0.67931 0.54938,-2.22424 0.67097,-3.21618 0.152813,-1.2468 0.100939,-3.07883 -0.120452,-4.24403 -0.183262,-0.9652 -0.69368,-2.8413 -0.851537,-3.12978 -0.05577,-0.10195 -0.191413,-0.23033 -0.301458,-0.28541 -0.261753,-0.13098 -0.562266,-0.43734 -0.663832,-0.67674 -0.04448,-0.10503 -0.100508,-0.52904 -0.124235,-0.94223 -0.04107,-0.71558 -0.228632,-1.81612 -0.41584,-2.44279 l -0.08674,-0.29036 -0.161033,0.43172 c -0.542357,1.45395 -0.868699,3.55892 -0.802352,5.17512 0.06751,1.64695 0.312374,2.6892 1.24697,5.31003 0.635868,1.78308 1.047334,3.17072 1.188019,4.00651 0.05663,0.33617 0.112587,0.65206 0.124516,0.70198 0.04672,0.19582 0.140752,0.0699 0.297087,-0.39784 z m 24.606727,-2.77281 c 0.175023,-0.0829 0.175903,-0.0861 0.06051,-0.22112 -0.06429,-0.0754 -0.430598,-0.34656 -0.813997,-0.6027 -0.383374,-0.25614 -1.038027,-0.72506 -1.454771,-1.04205 -1.548895,-1.17818 -2.382056,-1.68015 -3.340877,-2.01291 -0.837764,-0.29074 -1.394827,-0.35731 -2.676502,-0.31988 -1.083219,0.0318 -1.378733,0.0724 -1.37706,0.1905 3.09e-4,0.0258 0.416335,0.29971 0.92438,0.60897 0.50805,0.30925 1.442,0.92638 2.075432,1.37141 1.822342,1.28029 2.834862,1.80862 3.940022,2.05587 0.569348,0.12731 2.374809,0.10833 2.662767,-0.028 z m -18.171593,-2.44611 c 1.55884,-1.33675 2.003975,-1.96595 2.269097,-3.20736 0.29222,-1.36836 0.361579,-3.07131 0.21049,-5.16793 -0.150022,-2.08166 -0.171558,-2.89891 -0.09614,-3.65006 0.142531,-1.41972 0.525931,-2.90042 1.01388,-3.91593 l 0.218812,-0.45539 -0.257594,-1.51859 c -0.141689,-0.835236 -0.286327,-1.594117 -0.321436,-1.68638 -0.152438,-0.400685 -0.43377,-0.271177 -1.07237,0.493574 -1.038814,1.244076 -1.399488,2.384546 -1.49402,4.724346 -0.04371,1.08248 0.02749,2.2964 0.246183,4.19363 0.308838,2.67937 0.330198,3.62139 0.118486,5.22348 -0.189737,1.43576 -0.51763,2.7072 -1.086727,4.21375 -0.320018,0.84721 -0.395473,1.16116 -0.27903,1.16116 0.02993,0 0.268513,-0.18372 0.530373,-0.4083 z m -0.628608,-3.05632 c 0.451801,-1.61421 0.499246,-1.98536 0.49442,-3.86713 -0.0039,-1.35056 -0.03253,-1.88453 -0.168469,-3.08427 -0.09043,-0.79804 -0.192272,-2.12102 -0.226527,-2.93998 -0.03427,-0.81896 -0.08197,-1.68499 -0.105695,-1.92454 l -0.04352,-0.43555 -0.444931,0.7985 c -0.522038,0.93689 -1.144157,2.43524 -1.366214,3.29051 -0.476097,1.83375 -0.455808,3.34614 0.08916,6.6425 0.323416,1.95624 0.469765,3.0144 0.513735,3.71423 0.06652,1.05894 0.05779,1.06099 0.541978,-0.12542 0.240005,-0.58799 0.562267,-1.51898 0.716153,-2.06885 z m 23.300249,1.20684 c 0.211092,-0.0441 0.382881,-0.10099 0.381714,-0.12715 -0.0026,-0.0439 -2.808834,-1.91915 -3.378515,-2.25713 -1.282617,-0.76097 -2.769897,-1.15923 -4.34757,-1.1642 l -0.363394,-7.3e-4 0.947137,0.7571 c 2.743409,2.19294 4.050755,2.83441 5.83624,2.86364 0.297306,0.005 0.713299,-0.0271 0.924388,-0.071 z m -18.651035,-3.20146 c 0.730779,-1.32846 1.292359,-2.84672 1.640203,-4.43451 l 0.174236,-0.79539 -0.232866,-0.33573 c -0.356102,-0.51334 -0.428336,-0.73542 -0.428336,-1.31688 0,-0.2841 -0.02749,-0.57787 -0.06088,-0.65286 -0.09744,-0.21791 -1.286229,-1.46432 -1.335648,-1.4003 -0.02466,0.0318 -0.105863,0.36839 -0.180659,0.74768 -0.182532,0.92682 -0.22234,2.4938 -0.113579,4.46379 0.04633,0.83876 0.08099,2.17016 0.07721,2.95873 -0.0039,0.7885 0.01536,1.43366 0.04264,1.43366 0.02749,0 0.215318,-0.30069 0.417483,-0.66819 z m 23.074446,-1.05174 c 0.15607,-0.0718 0.0814,-0.23453 -0.19723,-0.43007 -0.42856,-0.30079 -2.12698,-1.22333 -2.56945,-1.39566 -0.657866,-0.25625 -1.266696,-0.38366 -2.038133,-0.42645 -0.720368,-0.04 -1.053256,-0.005 -1.053256,0.11428 0,0.082 1.601498,1.16881 2.303392,1.5634 0.675053,0.3795 1.168897,0.54398 1.879077,0.62581 0.4973,0.0573 1.50662,0.0265 1.6756,-0.0513 z m -17.100019,-2.3452 c 1.090687,-2.01605 1.422236,-3.77745 1.422236,-7.55578 0,-1.5348 -0.02515,-1.70414 -0.223,-1.50742 -0.172569,0.17159 -0.942929,1.60265 -1.145136,2.12739 -0.381285,0.98937 -0.467774,1.64757 -0.601457,4.57657 -0.0842,1.84263 -0.136875,2.55463 -0.245028,3.30293 l -0.03682,0.25407 0.286947,-0.36295 c 0.157812,-0.19964 0.401799,-0.57529 0.542193,-0.83481 z m 5.11831,-1.72405 c 0.572457,-0.93192 1.00916,-2.18341 1.153449,-3.30535 0.06682,-0.51889 0.178637,-2.95503 0.180472,-3.92879 l 9.65e-4,-0.573829 -0.12592,0.136559 c -0.187287,0.203 -0.692699,1.13251 -0.896157,1.64816 -0.380314,0.96389 -0.427545,1.28757 -0.585006,4.00878 -0.05079,0.87836 -0.109216,1.80119 -0.129853,2.05074 -0.02642,0.31813 -0.01667,0.45369 0.03184,0.45369 0.03809,0 0.20472,-0.2205 0.37028,-0.49 z m 15.094739,-0.60219 c 0.52144,-0.0991 0.60616,-0.13359 0.60616,-0.24778 0,-0.11949 -0.26097,-0.2457 -1.15169,-0.55699 -0.65339,-0.22834 -0.75407,-0.24365 -1.60631,-0.24406 -1.62381,-7.4e-4 -1.66296,0.19826 -0.15963,0.81164 0.69131,0.28208 0.82177,0.31243 1.34162,0.31221 0.3167,-1.3e-4 0.75314,-0.0339 0.96984,-0.0751 z m -10.034448,-1.40415 c 0.332037,-0.5572 0.664076,-1.38459 0.788628,-1.96503 0.172307,-0.80297 0.278875,-2.97252 0.176221,-3.58726 -0.07157,-0.429051 -0.26524,-0.22309 -0.644426,0.68562 -0.441167,1.05732 -0.552767,1.67502 -0.650592,3.60151 -0.07654,1.50633 -0.07682,1.82159 -9.64e-4,1.7659 0.03283,-0.0244 0.18212,-0.24963 0.33174,-0.50074 z m -14.488903,-1.03689 c 0.02146,-0.0669 0.06566,-0.56493 0.09852,-1.10702 0.06215,-1.02831 0.160397,-2.38388 0.219881,-3.03633 0.04107,-0.45151 -0.01611,-0.4807 -0.284615,-0.14509 -0.346058,0.43225 -1.270283,1.94179 -1.450129,2.36844 l -0.177439,0.42095 0.526314,0.61644 c 0.562742,0.65915 0.899117,1.00411 0.979078,1.00411 0.02721,0 0.06691,-0.0546 0.08848,-0.12124 z m 19.205241,-1.38487 c 0.16328,-0.2173 0.52002,-1.12331 0.61447,-1.56044 0.0495,-0.22944 0.10893,-0.9481 0.13182,-1.59703 l 0.0419,-1.179887 -0.16227,0.178928 c -0.36783,0.405622 -0.69877,1.560189 -0.8198,2.860009 -0.12242,1.31396 -0.0719,1.65211 0.1939,1.29842 z m 8.31857,-1.32877 c 0.23338,-0.0866 0.50452,-0.20674 0.60256,-0.26717 0.16957,-0.1045 0.1727,-0.1146 0.0641,-0.2097 -0.32827,-0.28747 -2.39428,0.0977 -2.39428,0.44638 0,0.28512 0.99338,0.30266 1.72754,0.0306 z M 80.539388,99.686296 c 0.419073,-0.512947 1.164288,-1.364349 1.656023,-1.892013 0.491736,-0.527661 0.894086,-1.0108 0.894086,-1.073682 0,-0.14179 -0.286158,-0.112887 -2.030617,0.204149 -1.337046,0.243073 -1.37912,0.26469 -1.605783,0.825465 -0.06712,0.16566 -0.121725,0.434316 -0.121725,0.596975 0,0.461102 0.324575,2.27172 0.407228,2.27172 0.02146,0 0.38175,-0.41967 0.800816,-0.932614 z m 24.593702,0.442644 c 0.32557,-0.49349 0.4948,-1.167973 0.54632,-2.177785 0.0438,-0.858074 -0.014,-0.946422 -0.25132,-0.385281 -0.3337,0.788626 -0.65621,2.690076 -0.45628,2.690076 0.0425,0 0.11527,-0.0571 0.16128,-0.12697 z"
       id="path31-7" />
  </g>
</svg>
